<?xml version="1.0" encoding="utf-8"?>
<!-- Generator: Adobe Illustrator 25.2.1, SVG Export Plug-In . SVG Version: 6.00 Build 0)  -->
<svg version="1.1" id="Layer_1" xmlns="http://www.w3.org/2000/svg" xmlns:xlink="http://www.w3.org/1999/xlink" x="0px" y="0px"
	 viewBox="0 0 283 100" style="enable-background:new 0 0 283 100;" xml:space="preserve">
<style type="text/css">
	.st0{fill:#FFFFFF;}
</style>
<g>
	<path class="st0" d="M25.7,25.7c1.5,0.3,3.1,0.5,4.6,0.9c9,2.4,16.3,10.8,17.3,20.1c0.3,2.3,0.5,4.7-0.2,7
		c-0.7,2.5-2.2,4.4-4.7,5.4c-3.9,1.5-7.7-0.3-9-4.3c-0.4-1.1-0.5-2.4-0.6-3.6c-0.1-1.4,0-2.8-0.2-4.2c-0.2,0.3-0.5,0.7-0.7,1
		c-1.8,2.9-3.5,5.8-5.4,8.6c-0.6,1-1.5,1.9-2.4,2.5c-1.4,1-3.3,0.6-4.1-0.9c-0.5-1.1-0.8-2.4-0.9-3.7c-0.1-2.1,0-4.3,0-6.4
		c0-0.3,0-0.6-0.1-1.2c-1.1,1.8-2.1,3.4-3.1,5c-2.2,3.6-4.4,7.1-6.6,10.6C9.5,63.1,9.5,63.5,10,64c7,7.4,18.9,8,26.6,1.3
		c0.3-0.2,0.5-0.5,0.8-0.7c1.1-0.8,2.2-0.7,3,0.2c0.9,1,0.9,2.3-0.2,3.2c-1.6,1.3-3.2,2.5-4.9,3.5c-2.7,1.6-5.6,2.5-8.7,2.8
		c-0.2,0-0.4,0.1-0.7,0.2c-1.3,0-2.5,0-3.8,0c-0.2-0.1-0.5-0.2-0.7-0.2c-3.3-0.3-6.3-1.3-9.1-2.9C3.2,66-1.7,55.5,0.5,45.3
		c2.1-9.6,7.9-16,17.4-18.8c1.4-0.4,2.8-0.6,4.2-0.8C23.4,25.7,24.5,25.7,25.7,25.7z M24,53c0.1,0,0.1,0,0.2,0.1
		c0.3-0.5,0.7-1.1,1-1.6c1.7-2.7,3.5-5.5,5.3-8.2c0.7-1,1.7-1.8,2.9-2.1c2-0.4,3.7,0.8,4,3.1c0.3,2.3,0.2,4.6,0.3,6.9
		c0,0.7,0.1,1.5,0.3,2.2c0.6,1.8,2.4,2.4,3.9,1.2c1.1-0.8,1.6-2.1,1.7-3.4c0.7-12.4-9.7-22.2-21.3-21.1C12.1,31.1,4.1,40,4.4,50.3
		c0.1,3.1,0.8,6.2,2.3,9.1c1.5-2.5,3-4.9,4.5-7.2c2.3-3.7,4.6-7.4,7-11.1c0.8-1.2,1.8-2.1,3.4-1.8c1.6,0.3,2.1,1.6,2.3,3.1
		c0.1,0.4,0.1,0.7,0.1,1.1c0,2.1,0,4.2,0,6.3C24,50.8,24,51.9,24,53z"/>
	<path class="st0" d="M283,54.4c-0.3,1.3-0.5,2.7-1.1,4c-1.9,3.9-6,5.1-9.9,3.1c-0.1-0.1-0.3-0.1-0.6-0.3c0,1.7,0,3.3,0,4.9
		c0,0.4,0,0.9-0.2,1.3c-0.3,1-1.1,1.5-2.1,1.5c-1-0.1-1.7-0.6-1.9-1.6c-0.1-0.4-0.1-0.8-0.1-1.2c0-5.7,0-11.5,0-17.2
		c0-0.3,0-0.6,0.1-0.9c0.2-0.8,0.7-1.3,1.5-1.3c0.8-0.1,1.3,0.3,1.6,1.1c0.1,0.2,0.1,0.4,0.2,0.6c1.2-1.1,2.6-1.8,4.2-1.9
		c4.1-0.3,7.5,2.5,8,6.5c0,0.4,0.1,0.8,0.2,1.2C283,54.2,283,54.3,283,54.4z M271.5,54.4c0,2.1,1.3,3.8,3.1,4.1
		c1.6,0.2,3.1-0.8,3.7-2.6c0.7-2.1-0.2-4.4-1.9-5.2C274,49.6,271.5,51.5,271.5,54.4z"/>
	<path class="st0" d="M145.6,50.2c-1.7,1.9-3.2,3.5-4.7,5.1c-1,1.1-1.6,1.1-2.7,0c-1.2-1.3-2.5-2.7-3.7-4c-0.3-0.3-0.6-0.7-1.1-1.2
		c0,0.7,0,1,0,1.3c0,2.8,0,5.5,0,8.3c0,1-0.4,1.7-1.3,2.1c-0.8,0.3-1.6,0.3-2.1-0.3c-0.5-0.6-0.8-1.4-0.8-2.1c-0.1-3.4,0-6.9,0-10.3
		c0-2.5,0-5.1,0-7.6c0-0.5,0.3-1,0.5-1.5c0.5,0.3,1.1,0.4,1.4,0.8c2.5,2.7,4.9,5.5,7.4,8.3c1,1.1,1.2,1.1,2.2,0
		c2.5-2.8,4.9-5.6,7.4-8.3c0.2-0.2,0.4-0.4,0.7-0.6c0.6-0.4,1.2-0.1,1.3,0.6c0,0.2,0,0.5,0,0.7c0,5.9,0,11.7,0,17.6
		c0,1.9-0.8,2.9-2.2,2.9c-1.4,0-2.1-1-2.1-3c0-2.6,0-5.1,0-7.7C145.7,51.1,145.7,50.8,145.6,50.2z"/>
	<path class="st0" d="M75.3,62.3c-6.2,0-11-4.7-11.3-10.8c-0.3-5.8,4.2-11.1,10-11.6c2.7-0.3,5.2,0.3,7.4,1.8c0.8,0.5,1.2,1.3,1,2.2
		c-0.2,0.8-0.7,1.4-1.5,1.5c-0.5,0.1-1.2-0.1-1.6-0.4c-3.1-1.8-6.5-1.6-8.8,0.7c-3.1,3.2-2.7,8.9,0.9,11.5c2,1.4,5.2,1.5,7.4,0.2
		c0.5-0.3,1-0.7,1.5-1c1-0.6,2.1-0.5,2.7,0.4c0.6,0.8,0.4,1.9-0.4,2.7C80.3,61.3,77.8,62.3,75.3,62.3z"/>
	<path class="st0" d="M227,50.7c0.1-4,2-7.4,5.9-9.5c3.8-2.1,7.6-1.9,11.3,0.4c1.3,0.8,1.6,2.1,0.8,3.2c-0.7,0.9-1.7,1-2.7,0.4
		c-2-1.2-4-1.7-6.3-1c-3.9,1.3-5.8,6-4.1,10.1c1.7,4.1,6.5,5.5,10.1,3c0.4-0.3,0.8-0.6,1.3-0.9c0.9-0.5,2-0.3,2.6,0.5
		c0.6,0.8,0.4,1.9-0.3,2.6c-5,4.7-13.3,3.5-16.9-2.4C227.5,55.1,227,53.3,227,50.7z"/>
	<path class="st0" d="M259.6,60.3c-1.9,1.9-4.5,2.6-7.2,1.6c-2.9-1-4.4-3.4-4.8-6.4c-0.4-3.3,0.5-6.2,3.5-8.1c2.5-1.6,5.7-1.4,8,0.6
		c0.2,0.2,0.4,0.4,0.7,0.6c0.1-0.3,0.1-0.5,0.2-0.7c0.3-0.9,0.9-1.4,1.8-1.4c0.9,0.1,1.4,0.7,1.5,1.7c0,1.6,0,3.3,0,4.9
		c0,2.3,0,4.6,0,6.9c0,1.4-1.2,2.4-2.3,1.8C260.3,61.6,260,60.9,259.6,60.3z M258.9,54.4c0-1.2-0.4-2.2-1.3-3.1
		c-1.1-0.9-2.5-1.2-3.7-0.6c-1.4,0.7-2.2,2.2-2.1,3.9c0.1,1.6,0.8,2.9,2.3,3.6c1.2,0.6,2.3,0.2,3.3-0.6
		C258.4,56.8,258.9,55.7,258.9,54.4z"/>
	<path class="st0" d="M164.9,48.7c0.1-0.1,0.1-0.2,0.1-0.2c0.4-1.4,0.9-1.9,1.9-1.8c1,0.1,1.4,0.8,1.4,2.1c0,3.8,0,7.6,0,11.4
		c0,1.2-0.6,1.9-1.5,1.9c-0.8,0-1.4-0.3-1.7-1.1c-0.1-0.3-0.1-0.6-0.2-0.9c-3.5,3.5-8.6,2.8-11.1-1.4c-1.8-3-1.5-7.2,0.7-9.7
		C156.8,46.2,161.2,45.1,164.9,48.7z M164.1,54.5c0,0-0.1,0-0.1,0c0-0.3,0-0.5-0.1-0.8c-0.2-1.8-1.6-3.1-3.4-3.3
		c-1.6-0.1-3.1,1.1-3.4,2.8c-0.2,0.9-0.1,2,0.2,2.9c0.4,1.3,1.4,2.3,2.9,2.4c1.5,0.1,2.7-0.7,3.3-2
		C163.8,55.8,163.9,55.1,164.1,54.5z"/>
	<path class="st0" d="M188.3,53.3c1-1.1,1.9-2.1,2.7-3c0.9-1,1.7-1.9,2.6-2.9c1-1.1,2-1.2,2.9-0.3c0.9,0.8,0.9,2,0,3.1
		c-1.1,1.3-2.3,2.5-3.5,3.8c1.3,1.5,2.5,3,3.7,4.5c0.9,1.1,0.8,2.1-0.1,3c-0.9,0.8-2.1,0.7-3-0.3c-1.4-1.6-2.8-3.3-4.3-4.9
		c-0.3-0.3-0.6-0.7-1.1-0.9c0,1.5,0,3.1,0,4.6c0,0.9-0.5,1.6-1.3,1.9c-0.8,0.3-1.6,0.3-2.1-0.3c-0.4-0.5-0.8-1.2-0.8-1.8
		c-0.1-5.8-0.1-11.6,0-17.4c0-1.4,0.9-2.3,2.2-2.3c1.2,0,2.1,1,2.1,2.4c0,3.2,0,6.4,0,9.6C188.3,52.4,188.3,52.7,188.3,53.3z"/>
	<path class="st0" d="M202.6,55.7c-0.2,1.9,1.5,3,3,3c1.2,0,2.3-0.2,3.5-0.6c1.1-0.3,2-0.2,2.5,0.6c0.5,0.8,0.3,1.8-0.7,2.5
		c-0.5,0.4-1.1,0.7-1.8,0.8c-3.6,0.9-7.9,0.2-9.8-3c-1.9-3.1-1.4-8.3,1.2-10.7c2.3-2.2,5.1-2.3,7.9-1.4c2.6,0.9,4,3,4.4,5.7
		c0.1,0.4,0.1,0.7,0.1,1.1c0.1,1.2-0.6,2-1.9,2c-2.5,0-4.9,0-7.4,0C203.3,55.7,202.9,55.7,202.6,55.7z M202.6,52.9c2,0,4,0,6,0
		c0-1.4-1.2-2.4-2.8-2.4C203.9,50.4,202.6,51.4,202.6,52.9z"/>
	<path class="st0" d="M92.7,46.4c-4.4-0.1-8.1,3.4-8.2,7.8c-0.1,4.3,3.5,8,7.9,8.1c4.2,0.1,7.7-3.5,7.8-7.9
		C100.3,50.2,96.8,46.5,92.7,46.4z M94.9,57.2c-0.9,1.4-2.6,1.7-4,1c-1.6-0.8-2.4-2.8-2-4.7c0.4-1.8,1.6-2.9,3.4-2.9
		c2.1-0.1,3.7,1.6,3.8,4C95.7,55.4,95.5,56.4,94.9,57.2z"/>
	<path class="st0" d="M114.6,48.2c2.1-1.9,4.6-2.3,7.1-1.4c2.4,0.9,3.5,2.8,3.6,5.2c0.2,2.6,0.1,5.3,0.1,7.9c0,1.3-1,2.1-2.2,2.1
		c-1.2,0-2-0.9-2.1-2.2c0-1.8,0-3.7,0-5.5c0-0.5,0-1-0.1-1.5c-0.2-1.8-0.9-2.4-2.7-2.5c-1.5-0.1-2.5,0.7-2.8,2.2
		c-0.2,1.4-0.1,2.8-0.2,4.2c0,1,0,2,0,3c0,1.4-1,2.3-2.2,2.3c-1.2,0-2.1-1-2.1-2.4c0-3.6,0-7.3,0-10.9c0-1.3,0.5-2,1.4-2.2
		C113.4,46.5,114,46.9,114.6,48.2z"/>
	<path class="st0" d="M221.3,50.4c0,2.3-0.1,4.6,0,6.8c0,1.1,0.4,1.3,1.8,1.3c1.7,0.1,2.6,1.5,1.8,2.8c-0.3,0.4-0.9,0.9-1.4,1
		c-1,0.1-2.1,0.1-3.1-0.1c-1.5-0.3-2.6-1.3-3-2.8c-0.3-1.2-0.4-2.5-0.5-3.7c-0.1-1.7,0-3.4,0-5.2c-1.5,0-3-0.2-3.1-2.1
		c0-1.2,0.8-1.8,3.1-2c0-0.9,0-1.9,0-2.9c0-0.4,0-0.8,0-1.2c0.1-1.2,0.9-2.1,2-2.2c1.1-0.1,2.1,0.7,2.2,1.9c0.1,1.1,0.1,2.2,0.1,3.3
		c0,0.3,0,0.7,0,1.1c0.6,0,1.2,0,1.7,0c1.2,0,2,0.9,2,2c0,1-0.9,1.9-2,1.9C222.4,50.4,221.9,50.4,221.3,50.4z"/>
	<path class="st0" d="M175.7,48.3c1.3-1.1,2.7-1.8,4.3-1.8c1.3,0,2.2,0.8,2.2,2c0,1.1-0.9,1.9-2.2,2c-2.5,0.1-3.5,1.1-3.5,3.6
		c0,1.9,0,3.8,0,5.6c0,1.5-0.8,2.5-2.1,2.5c-1.3,0-2.2-0.9-2.2-2.5c0-3.7,0-7.3,0-11c0-1.1,0.5-1.8,1.4-2
		C174.6,46.5,175.3,47,175.7,48.3z"/>
	<path class="st0" d="M107.2,54.4c0,1.7,0,3.5,0,5.2c0,1.5-0.9,2.5-2.2,2.5c-1.3,0-2.1-1-2.1-2.5c0-3.5,0-7,0-10.6
		c0-1.5,0.9-2.4,2.1-2.4c1.3,0,2.2,1,2.2,2.4C107.2,50.8,107.2,52.6,107.2,54.4z"/>
	<path class="st0" d="M105,44.9c-1.4,0-2.5-1.2-2.5-2.5c0-1.4,1.2-2.6,2.5-2.5c1.4,0,2.6,1.2,2.5,2.6
		C107.5,43.8,106.4,44.9,105,44.9z"/>
</g>
</svg>
